<?xml version="1.0"?>
<svg xmlns="http://www.w3.org/2000/svg" id="line" height="512px" viewBox="0 0 64 64" width="512px" class=""><g><g fill="#c4a2fc"><path d="m33.5 33h26v20h-26z" data-original="#C4A2FC" class="active-path" style="fill:#8A9FD2" data-old_color="#C4A2FC"/><path d="m33.5 55v5a3 3 0 0 0 3 3h20a3 3 0 0 0 3-3v-5z" data-original="#C4A2FC" class="active-path" style="fill:#8A9FD2" data-old_color="#C4A2FC"/><path d="m59.5 31v-5a2.977 2.977 0 0 0 -1.391-2.519c-5.868-3.719-3.368-2.414-10.984-8.262a1.022 1.022 0 0 0 -1.25 0c-7.436 5.71-4.973 4.452-10.984 8.262a2.977 2.977 0 0 0 -1.391 2.519v5zm-12-12.92 6.149 4.92h-6.149zm-2 0v4.92h-6.149z" data-original="#C4A2FC" class="active-path" style="fill:#8A9FD2" data-old_color="#C4A2FC"/></g><path d="m45.5 10a9.01 9.01 0 0 0 -9-9h-18a9.01 9.01 0 0 0 -9 9v4a5.006 5.006 0 0 0 -5 5 20.754 20.754 0 0 0 3.5 11.547 8.78 8.78 0 0 0 6.5 4.391v5.062a3 3 0 0 0 3 3h20a3 3 0 0 0 3-3v-5.1a4.993 4.993 0 0 0 4-4.9v-3.679a5.961 5.961 0 0 0 1-3.321zm-34 0a7.009 7.009 0 0 1 7-7h18a7.009 7.009 0 0 1 7 7v13a4 4 0 0 1 -4 4h-19a4 4 0 0 1 -3.862-3.014 4.994 4.994 0 0 0 -.138-9.986h-5zm27 30a1 1 0 0 1 -1 1h-20a1 1 0 0 1 -1-1v-5h22zm1-7h-24a6.935 6.935 0 0 1 -5.84-3.562 18.762 18.762 0 0 1 -3.16-10.438 3 3 0 0 1 3-3h7a3 3 0 0 1 0 6h-3a1 1 0 0 0 0 2h1.09a6.006 6.006 0 0 0 5.91 5h19a5.957 5.957 0 0 0 2.995-.809l.005 1.809a3 3 0 0 1 -3 3z" fill="#151a6a" data-original="#151A6A" class="" style="fill:#0D47A1" data-old_color="#151a6a"/></g> </svg>
