<?xml version="1.0"?>
<svg xmlns="http://www.w3.org/2000/svg" id="line" height="512px" viewBox="0 0 64 64" width="512px" class=""><g><path d="m54.986 13.336a1 1 0 0 0 -.986-.836h-32a1 1 0 0 0 -.986.836l-8 48a1 1 0 0 0 .986 1.164h48a1 1 0 0 0 .986-1.164zm-28.786 6.256a1.007 1.007 0 0 1 1.4-.215 5.261 5.261 0 0 0 6.15 0 1.017 1.017 0 0 1 .088-.057 1 1 0 0 1 1.094.049 5.24 5.24 0 0 0 6.144 0 1 1 0 0 1 1.094-.049c.025.015.063.039.087.057a5.262 5.262 0 0 0 6.151 0 1.007 1.007 0 0 1 1.4.215.993.993 0 0 1 -.2 1.387 7.276 7.276 0 0 1 -7.717.52 8.671 8.671 0 0 1 -7.766 0 7.277 7.277 0 0 1 -7.717-.52.992.992 0 0 1 -.208-1.387zm-3.011 15.643a1 1 0 0 1 1.395-.226 6.97 6.97 0 0 0 8.159 0 1 1 0 0 1 1.171 0 6.964 6.964 0 0 0 8.155 0 1.013 1.013 0 0 1 1.159-.009 6.982 6.982 0 0 0 8.176.02 1.008 1.008 0 0 1 1.4.222 1 1 0 0 1 -.222 1.392 8.972 8.972 0 0 1 -9.924.389 8.834 8.834 0 0 1 -4.649 1.313 9 9 0 0 1 -4.683-1.314 8.971 8.971 0 0 1 -9.912-.388 1 1 0 0 1 -.225-1.399zm30.438 17.77a10.105 10.105 0 0 1 -10.3-.222 10.092 10.092 0 0 1 -10.664 0 10.105 10.105 0 0 1 -10.294.217 1.011 1.011 0 0 1 -.334-1.469.984.984 0 0 1 1.279-.295 8.1 8.1 0 0 0 8.762-.467.961.961 0 0 1 .137-.083 1 1 0 0 1 1.034.082 8.115 8.115 0 0 0 9.491 0 1 1 0 0 1 1.142-.023 8.138 8.138 0 0 0 8.795.5.982.982 0 0 1 1.278.3 1.01 1.01 0 0 1 -.326 1.46z" fill="#c4a2fc" data-original="#C4A2FC" class="" style="fill:#8A9FD2" data-old_color="#c4a2fc"/><g fill="#151a6a"><path d="m50 31.72c-3.248 0-3.5 1.92-6.005 1.92-2.482 0-2.763-1.92-6.006-1.92a6.289 6.289 0 0 0 -1.387.149l-17.688-17.689 5.543-5.543a4.182 4.182 0 0 0 -5.914-5.914l-8.422 8.422a5 5 0 0 0 0 7.07l4.757 4.758a1 1 0 0 1 0 1.414l-8.787 8.788c-.184-.1-.363-.215-.553-.337a5.875 5.875 0 0 0 -3.538-1.118 1 1 0 0 0 0 2c2.481 0 2.759 1.92 6 1.92s3.5-1.92 6-1.92 2.759 1.92 6 1.92 3.505-1.92 6-1.92 2.757 1.92 6 1.92c3.3 0 3.447-1.92 6-1.92 2.5 0 2.741 1.92 6.006 1.92 3.226 0 3.527-1.92 6.005-1.92a1 1 0 0 0 0-2zm-18.012 1.92c-2.481 0-2.757-1.92-6-1.92-3.294 0-3.446 1.92-6 1.92-2.482 0-2.758-1.92-6-1.92-3.022 0-3.528 1.711-5.518 1.9l7.823-7.82a3 3 0 0 0 0-4.242l-4.757-4.758a3 3 0 0 1 0-4.242l8.421-8.422a2.182 2.182 0 1 1 3.086 3.086l-6.25 6.25a1 1 0 0 0 0 1.414l17.836 17.838a4.124 4.124 0 0 1 -2.641.916z" data-original="#151A6A" class="active-path" style="fill:#0D47A1" data-old_color="#151A6A"/><path d="m44 41.64c-2.482 0-2.763-1.92-6.006-1.92-3.295 0-3.447 1.92-6 1.92-2.481 0-2.757-1.92-6-1.92-3.294 0-3.446 1.92-6 1.92-2.482 0-2.758-1.92-6-1.92s-3.5 1.92-6 1.92a1 1 0 0 0 0 2c3.24 0 3.5-1.92 6-1.92s2.759 1.92 6 1.92 3.505-1.92 6-1.92 2.757 1.92 6 1.92c3.3 0 3.447-1.92 6-1.92 2.5 0 2.741 1.92 6.006 1.92a1 1 0 0 0 0-2z" data-original="#151A6A" class="active-path" style="fill:#0D47A1" data-old_color="#151A6A"/><path d="m38.5 26.68a7.5 7.5 0 1 0 -7.5-7.5 7.508 7.508 0 0 0 7.5 7.5zm0-13a5.5 5.5 0 1 1 -5.5 5.5 5.506 5.506 0 0 1 5.5-5.5z" data-original="#151A6A" class="active-path" style="fill:#0D47A1" data-old_color="#151A6A"/></g></g> </svg>
