<?xml version="1.0"?>
<svg xmlns="http://www.w3.org/2000/svg" id="line" width="512px" height="512px" viewBox="0 0 64 64" class=""><g><polygon points="39 63 45 63 39 49.236 39 63" style="fill:#8A9FD2" data-original="#C4A2FC" class="" data-old_color="#C4A2FC"/><path d="M62,53a1,1,0,0,0-1,1v4.157L38.873,18.513a1.04,1.04,0,0,0-1.746,0L15,58.157V54a1,1,0,0,0-2,0v8a1.02,1.02,0,0,0,1,1H37V30a1,1,0,0,1,2,0V46.256l9.287,2.786a1,1,0,0,1,.7,1.11L47.012,63H62a1.021,1.021,0,0,0,1-1V54A1,1,0,0,0,62,53Z" style="fill:#8A9FD2" data-original="#C4A2FC" class="" data-old_color="#C4A2FC"/><path d="M49,31.184V30a4,4,0,0,0-4-4,3.959,3.959,0,0,0-2,.556V20a6.977,6.977,0,0,0-2.11-5H43a3,3,0,0,0,3-3V4a3,3,0,0,0-3-3H9A3,3,0,0,0,6,4v8a3,3,0,0,0,3,3h2.11A6.977,6.977,0,0,0,9,20v6.556A3.959,3.959,0,0,0,7,26a4,4,0,0,0-4,4v1.184A3,3,0,0,0,1,34V44a5.006,5.006,0,0,0,5,5H9.184A3,3,0,0,0,12,51H40a3,3,0,0,0,2.816-2H46a5.006,5.006,0,0,0,5-5V34A3,3,0,0,0,49,31.184ZM45,28a2,2,0,0,1,2,2v1H43V30A2,2,0,0,1,45,28ZM44,4v8a1,1,0,0,1-1,1H37V3h6A1,1,0,0,1,44,4ZM35,3V13H33V3ZM21,13V3H31V13ZM19,3V13H17V3ZM8,12V4A1,1,0,0,1,9,3h6V13H9A1,1,0,0,1,8,12Zm8,3H36a5.006,5.006,0,0,1,5,5v1H11V20A5.006,5.006,0,0,1,16,15ZM33,35.521a10.979,10.979,0,0,0-14,0V23H33ZM5,30a2,2,0,0,1,4,0v1H5ZM3,44V34a1,1,0,0,1,1-1H9V47H6A3,3,0,0,1,3,44Zm8,4V23h6V37.7A10.93,10.93,0,0,0,15,44v5H12A1,1,0,0,1,11,48Zm6,1V44a9,9,0,0,1,18,0v5Zm23,0H37V44a10.93,10.93,0,0,0-2-6.3V23h6V48A1,1,0,0,1,40,49Zm9-5a3,3,0,0,1-3,3H43V33h5a1,1,0,0,1,1,1Z" style="fill:#0D47A1" data-original="#151A6A" class="active-path" data-old_color="#151A6A"/></g> </svg>
