<?xml version="1.0"?>
<svg xmlns="http://www.w3.org/2000/svg" id="line" height="512px" viewBox="0 0 64 64" width="512px" class=""><g><path d="m56 19h-5.1a5 5 0 0 0 -9.8 0h-5.1a3 3 0 0 0 -3 3v4a1 1 0 0 0 1 1h24a1 1 0 0 0 1-1v-4a3 3 0 0 0 -3-3zm-10 2a1 1 0 1 1 1-1 1 1 0 0 1 -1 1z" fill="#c4a2fc" data-original="#C4A2FC" class="" style="fill:#8A9FD2" data-old_color="#c4a2fc"/><path d="m61 22.18v3.82a3 3 0 0 1 -3 3h-24a3 3 0 0 1 -3-3v-3.82a3 3 0 0 0 -2 2.82v35a3 3 0 0 0 3 3h28a3 3 0 0 0 3-3v-35a3 3 0 0 0 -2-2.82zm-4 36.82h-19a1 1 0 0 1 0-2h19a1 1 0 0 1 0 2zm0-8h-22a1 1 0 0 1 0-2h22a1 1 0 0 1 0 2zm0-8h-19a1 1 0 0 1 0-2h19a1 1 0 0 1 0 2zm0-8h-17a1 1 0 0 1 0-2h17a1 1 0 0 1 0 2z" fill="#c4a2fc" data-original="#C4A2FC" class="" style="fill:#8A9FD2" data-old_color="#c4a2fc"/><g fill="#151a6a"><path d="m22 6h-6v-3a2 2 0 0 0 -2-2h-3a2 2 0 0 0 -2 2v3h-6a2 2 0 0 0 -2 2v8a2 2 0 0 0 2 2h6v16h-6a2 2 0 0 0 -2 2v8a2 2 0 0 0 2 2h6v3a2 2 0 0 0 2 2h3a2 2 0 0 0 2-2v-3h6a2 2 0 0 0 2-2v-8a2 2 0 0 0 -2-2h-6v-16h6a2 2 0 0 0 2-2v-8a2 2 0 0 0 -2-2zm-11-3h3v3h-3zm3 46h-3v-3h3zm8-13v8h-19v-8zm-11-2v-16h3v16zm-8-18v-8h19v8z" data-original="#151A6A" class="active-path" style="fill:#0D47A1" data-old_color="#151A6A"/><path d="m41 15v-9a5 5 0 0 0 -10 0v9a2 2 0 0 0 -2 2v15a3 3 0 0 0 6 0v-15a2 2 0 0 0 -2-2v-5a4.88 4.88 0 0 0 6 0v5a2 2 0 0 0 -2 2v15a3 3 0 0 0 6 0v-15a2 2 0 0 0 -2-2zm-8 17a1 1 0 0 1 -2 0v-15h2zm3-23a3 3 0 1 1 3-3 3 3 0 0 1 -3 3zm5 23a1 1 0 0 1 -2 0v-15h2z" data-original="#151A6A" class="active-path" style="fill:#0D47A1" data-old_color="#151A6A"/></g></g> </svg>
